<svg width="800" height="560" viewBox="0 0 800 560" fill="none" xmlns="http://www.w3.org/2000/svg">
  <rect width="800" height="560" rx="28" fill="url(#bg)"/>
  <rect x="180" y="118" width="380" height="260" rx="28" fill="#102945" stroke="#28486F"/>
  <rect x="212" y="88" width="380" height="260" rx="28" fill="#15345A" stroke="#33557E"/>
  <rect x="244" y="58" width="380" height="260" rx="28" fill="url(#card)" stroke="#3C628F"/>
  <rect x="282" y="104" width="150" height="18" rx="9" fill="#B8D7FF" fill-opacity="0.66"/>
  <rect x="282" y="139" width="202" height="12" rx="6" fill="#B8D7FF" fill-opacity="0.32"/>
  <rect x="282" y="175" width="286" height="12" rx="6" fill="#B8D7FF" fill-opacity="0.22"/>
  <rect x="282" y="211" width="178" height="12" rx="6" fill="#B8D7FF" fill-opacity="0.32"/>
  <rect x="282" y="247" width="234" height="12" rx="6" fill="#B8D7FF" fill-opacity="0.22"/>
  <circle cx="548" cy="183" r="54" fill="url(#glow)"/>
  <circle cx="548" cy="183" r="36" fill="#193C62" stroke="#9DC6FF" stroke-width="2"/>
  <path d="M535 183L545 193L562 172" stroke="#E4F0FF" stroke-width="6" stroke-linecap="round" stroke-linejoin="round"/>
  <rect x="116" y="406" width="568" height="56" rx="20" fill="#102B48" stroke="#294A74"/>
  <rect x="144" y="428" width="168" height="12" rx="6" fill="#B8D7FF" fill-opacity="0.48"/>
  <rect x="348" y="428" width="112" height="12" rx="6" fill="#B8D7FF" fill-opacity="0.24"/>
  <rect x="490" y="428" width="132" height="12" rx="6" fill="#B8D7FF" fill-opacity="0.24"/>
  <defs>
    <linearGradient id="bg" x1="400" y1="0" x2="400" y2="560" gradientUnits="userSpaceOnUse">
      <stop stop-color="#14365A"/>
      <stop offset="1" stop-color="#0A1D33"/>
    </linearGradient>
    <linearGradient id="card" x1="434" y1="58" x2="434" y2="318" gradientUnits="userSpaceOnUse">
      <stop stop-color="#214971"/>
      <stop offset="1" stop-color="#123150"/>
    </linearGradient>
    <radialGradient id="glow" cx="0" cy="0" r="1" gradientUnits="userSpaceOnUse" gradientTransform="translate(548 183) rotate(90) scale(74)">
      <stop stop-color="#A7CCFF" stop-opacity="0.36"/>
      <stop offset="1" stop-color="#A7CCFF" stop-opacity="0"/>
    </radialGradient>
  </defs>
</svg>
