<svg width="800" height="560" viewBox="0 0 800 560" fill="none" xmlns="http://www.w3.org/2000/svg">
  <rect width="800" height="560" rx="28" fill="url(#bg)"/>
  <g opacity="0.9">
    <rect x="54" y="96" width="168" height="118" rx="24" fill="url(#card)" stroke="#2D4E78"/>
    <rect x="54" y="254" width="168" height="118" rx="24" fill="url(#card)" stroke="#2D4E78"/>
    <rect x="578" y="175" width="168" height="118" rx="24" fill="url(#card)" stroke="#2D4E78"/>
  </g>
  <circle cx="400" cy="234" r="92" fill="url(#ringGlow)"/>
  <circle cx="400" cy="234" r="58" fill="#173A60" stroke="#7FB4FF" stroke-width="2"/>
  <circle cx="400" cy="234" r="24" fill="#A7CCFF" fill-opacity="0.7"/>
  <path d="M222 155H302C320 155 335 170 335 188V194" stroke="url(#line)" stroke-width="4" stroke-linecap="round"/>
  <path d="M222 312H302C320 312 335 297 335 279V273" stroke="url(#line)" stroke-width="4" stroke-linecap="round"/>
  <path d="M465 234H541C563 234 578 219 578 197" stroke="url(#line)" stroke-width="4" stroke-linecap="round"/>
  <circle cx="128" cy="134" r="22" fill="#A7CCFF" fill-opacity="0.25"/>
  <circle cx="128" cy="292" r="22" fill="#A7CCFF" fill-opacity="0.25"/>
  <circle cx="651" cy="213" r="22" fill="#A7CCFF" fill-opacity="0.25"/>
  <rect x="104" y="165" width="68" height="10" rx="5" fill="#B8D7FF" fill-opacity="0.65"/>
  <rect x="104" y="184" width="92" height="10" rx="5" fill="#B8D7FF" fill-opacity="0.32"/>
  <rect x="104" y="323" width="78" height="10" rx="5" fill="#B8D7FF" fill-opacity="0.65"/>
  <rect x="104" y="342" width="62" height="10" rx="5" fill="#B8D7FF" fill-opacity="0.32"/>
  <rect x="627" y="244" width="72" height="10" rx="5" fill="#B8D7FF" fill-opacity="0.65"/>
  <rect x="627" y="263" width="88" height="10" rx="5" fill="#B8D7FF" fill-opacity="0.32"/>
  <path d="M381 234L394 247L421 220" stroke="#DCEBFF" stroke-width="7" stroke-linecap="round" stroke-linejoin="round"/>
  <defs>
    <linearGradient id="bg" x1="400" y1="0" x2="400" y2="560" gradientUnits="userSpaceOnUse">
      <stop stop-color="#15365A"/>
      <stop offset="1" stop-color="#0A1E34"/>
    </linearGradient>
    <linearGradient id="card" x1="400" y1="96" x2="400" y2="372" gradientUnits="userSpaceOnUse">
      <stop stop-color="#244971" stop-opacity="0.8"/>
      <stop offset="1" stop-color="#102A46" stop-opacity="0.92"/>
    </linearGradient>
    <radialGradient id="ringGlow" cx="0" cy="0" r="1" gradientUnits="userSpaceOnUse" gradientTransform="translate(400 234) rotate(90) scale(118)">
      <stop stop-color="#A7CCFF" stop-opacity="0.38"/>
      <stop offset="1" stop-color="#A7CCFF" stop-opacity="0"/>
    </radialGradient>
    <linearGradient id="line" x1="222" y1="234" x2="578" y2="234" gradientUnits="userSpaceOnUse">
      <stop stop-color="#7FB4FF" stop-opacity="0.15"/>
      <stop offset="0.5" stop-color="#A7CCFF"/>
      <stop offset="1" stop-color="#7FB4FF" stop-opacity="0.15"/>
    </linearGradient>
  </defs>
</svg>
